<svg version="1.1" xmlns="http://www.w3.org/2000/svg" xmlns:xlink="http://www.w3.org/1999/xlink" width="2048.00" height="2048.00" viewBox="0 0 2048.0 2048.0">		<g id="document" transform="matrix(1,0,0,1,1024.0,1024.0)">			<g>				<g>					<path d="M-677.916,239.814 C-810.127,239.814 -917.247,132.694 -917.247,0.482508 C-917.247,-131.729 -810.127,-238.849 -677.916,-238.849 " fill="none" stroke-width="27.01" stroke="#911eb4" stroke-linecap="square" stroke-linejoin="miter" />					<path d="M-115.437,239.814 L-668.622,239.814 " fill="none" stroke-width="27.01" stroke="#911eb4" stroke-linecap="square" stroke-linejoin="miter" />					<path d="M-125.585,-238.849 L-678.769,-238.849 " fill="none" stroke-width="27.01" stroke="#911eb4" stroke-linecap="square" stroke-linejoin="miter" />					<path d="M-125.28,-225.51 C-7.17688,-225.476 90.2205,-128.078 90.2205,-7.86306 L90.2205,5.64439 L117.235,5.64439 L117.235,-7.86306 C117.235,-142.998 9.57027,-252.356 -125.565,-252.356 C-125.677,-245.805 -125.28,-225.51 -125.28,-225.51 Z " fill="#911eb4" fill-opacity="1.00" />				</g>				<g>					<path d="M677.916,-233.86 C810.127,-233.86 917.247,-126.74 917.247,5.47141 C917.247,137.683 810.127,244.803 677.916,244.803 " fill="none" stroke-width="27.01" stroke="#911eb4" stroke-linecap="square" stroke-linejoin="miter" />					<path d="M115.437,-233.86 L668.622,-233.86 " fill="none" stroke-width="27.01" stroke="#911eb4" stroke-linecap="square" stroke-linejoin="miter" />					<path d="M125.585,244.803 L678.77,244.803 " fill="none" stroke-width="27.01" stroke="#911eb4" stroke-linecap="square" stroke-linejoin="miter" />					<path d="M125.28,231.464 C7.1769,231.43 -90.2204,134.032 -90.2205,13.8171 L-90.2205,0.309641 L-117.235,0.309646 L-117.235,13.8171 C-117.235,148.952 -9.57024,258.31 125.565,258.31 C125.677,251.759 125.28,231.464 125.28,231.464 Z " fill="#911eb4" fill-opacity="1.00" />				</g>				<path d="M-558.915,-143.041 L-558.915,73.6434 C-558.915,83.7713 -561.313,91.234 -566.111,96.0314 C-570.908,100.829 -576.905,103.228 -584.101,103.228 C-591.297,103.228 -597.294,100.829 -602.092,96.0314 C-606.889,91.234 -609.288,83.7713 -609.288,73.6434 L-609.288,-143.041 L-650.066,-143.041 L-650.066,77.6412 C-650.066,86.9696 -648.334,95.565 -644.869,103.427 C-641.404,111.29 -636.607,118.286 -630.476,124.416 C-624.346,130.546 -617.35,135.344 -609.488,138.809 C-601.625,142.273 -593.163,144.006 -584.101,144.006 C-575.039,144.006 -566.511,142.273 -558.515,138.809 C-550.519,135.344 -543.456,130.546 -537.326,124.416 C-531.196,118.286 -526.465,111.29 -523.134,103.427 C-519.802,95.565 -518.137,86.9696 -518.137,77.6412 L-518.137,-143.041 L-558.915,-143.041 Z M-417.79,-104.661 C-403.664,-104.661 -394.07,-100.93 -389.006,-93.4672 C-386.607,-89.4694 -385.008,-84.7386 -384.208,-79.2748 C-383.409,-73.8111 -383.009,-67.4811 -383.009,-60.285 C-383.009,-53.0888 -383.409,-46.7589 -384.208,-41.2951 C-385.008,-35.8314 -386.474,-31.2339 -388.606,-27.5025 C-391.005,-23.7712 -394.336,-20.906 -398.601,-18.9071 C-402.865,-16.9082 -408.595,-15.9087 -415.791,-15.9087 L-438.979,-15.9087 L-438.979,-104.661 L-417.79,-104.661 Z M-438.979,141.607 L-438.979,20.072 L-414.592,20.072 L-376.612,141.607 L-333.435,141.607 L-377.412,11.6765 C-364.352,4.48037 -355.224,-4.98124 -350.026,-16.7083 C-344.829,-28.4354 -342.231,-42.6944 -342.231,-59.4854 C-342.231,-115.189 -366.218,-143.041 -414.192,-143.041 L-479.757,-143.041 L-479.757,141.607 L-438.979,141.607 Z M-309.448,141.607 L-309.448,-143.041 L-268.67,-143.041 L-268.67,100.829 L-187.913,100.829 L-187.913,141.607 L-309.448,141.607 Z " fill="#5d1e87" fill-opacity="1.00" />				<path d="M300.329,146.265 C324.583,146.265 343.173,139.935 356.1,127.275 C369.026,114.615 375.489,94.9588 375.489,68.3064 L375.489,-64.8224 C375.489,-88.2765 369.426,-106.4 357.299,-119.193 C345.172,-131.986 327.382,-138.383 303.928,-138.383 L243.56,-138.383 L243.56,146.265 L300.329,146.265 Z M303.128,-100.004 C315.122,-100.004 323.384,-96.9386 327.915,-90.8085 C332.446,-84.6784 334.711,-76.0164 334.711,-64.8224 L334.711,72.3042 C334.711,84.5644 332.312,93.5595 327.515,99.2898 C322.718,105.02 314.589,107.885 303.128,107.885 L284.338,107.885 L284.338,-100.004 L303.128,-100.004 Z M535.404,146.265 L535.404,105.486 L454.647,105.486 L454.647,21.9312 L525.009,21.9312 L525.009,-16.4483 L454.647,-16.4483 L454.647,-100.004 L535.404,-100.004 L535.404,-138.383 L413.869,-138.383 L413.869,146.265 L535.404,146.265 Z M656.939,-138.383 L624.156,60.3107 L623.357,60.3107 L590.974,-138.383 L547.797,-138.383 L605.766,146.265 L641.747,146.265 L700.116,-138.383 L656.939,-138.383 Z " fill="#5d1e87" fill-opacity="1.00" />				<path d="M6.41374,62.6886 C38.0337,62.6886 63.6309,37.0914 63.6309,5.47143 C63.6309,-26.1486 38.0337,-51.7457 6.41374,-51.7457 C-25.2063,-51.7457 -50.8034,-26.1486 -50.8034,5.47142 C-50.8034,37.0914 -25.2063,62.6886 6.41374,62.6886 Z " fill="#5d1e87" fill-opacity="1.00" />			</g>		</g>	</svg>
